<svg width="1600" height="900" viewBox="0 0 1600 900" fill="none" xmlns="http://www.w3.org/2000/svg">
<rect width="1600" height="900" fill="#282C34"/>
<path d="M259.768 538.224C254.392 541.68 247.912 544.416 240.328 546.432C232.84 548.544 225.256 549.6 217.576 549.6C200.68 549.6 187.72 545.184 178.696 536.352C169.768 527.52 165.304 516.048 165.304 501.936V414.96H130.888V394.224H165.304V359.952L192.952 356.64V394.224H244.792L241.624 414.96H192.952V501.648C192.952 510 195.064 516.288 199.288 520.512C203.608 524.736 210.76 526.848 220.744 526.848C226.312 526.848 231.448 526.224 236.152 524.976C240.952 523.632 245.368 521.856 249.4 519.648L259.768 538.224ZM438.36 394.224L385.368 546.864C381.72 557.616 377.016 567.312 371.256 575.952C365.496 584.688 358.056 591.792 348.936 597.264C339.912 602.736 328.536 606.144 314.808 607.488L310.92 586.032C321.288 584.4 329.496 581.904 335.544 578.544C341.688 575.184 346.488 570.816 349.944 565.44C353.496 560.064 356.664 553.584 359.448 546H350.088L297.816 394.224H327.336L368.664 525.84L409.848 394.224H438.36ZM552.439 390.624C565.879 390.624 576.631 393.936 584.695 400.56C592.759 407.088 598.567 416.304 602.119 428.208C605.671 440.016 607.447 453.936 607.447 469.968C607.447 485.328 605.287 499.008 600.967 511.008C596.647 523.008 590.167 532.464 581.527 539.376C572.887 546.192 562.039 549.6 548.983 549.6C532.663 549.6 519.511 543.84 509.527 532.32V604.176L481.879 607.488V394.224H505.639L507.655 414.672C519.367 398.64 534.295 390.624 552.439 390.624ZM545.383 412.368C537.511 412.368 530.551 414.768 524.503 419.568C518.455 424.272 513.463 429.648 509.527 435.696V509.136C513.367 514.8 518.071 519.264 523.639 522.528C529.207 525.696 535.399 527.28 542.215 527.28C554.119 527.28 563.095 522.672 569.143 513.456C575.191 504.144 578.215 489.648 578.215 469.968C578.215 450.288 575.527 435.792 570.151 426.48C564.775 417.072 556.519 412.368 545.383 412.368ZM676.887 479.472C677.655 496.176 682.167 508.32 690.423 515.904C698.775 523.488 708.663 527.28 720.087 527.28C727.671 527.28 734.631 526.128 740.967 523.824C747.303 521.52 753.735 518.16 760.263 513.744L772.791 531.168C765.687 536.832 757.479 541.344 748.167 544.704C738.855 547.968 729.207 549.6 719.223 549.6C704.055 549.6 691.143 546.288 680.487 539.664C669.927 532.944 661.863 523.632 656.295 511.728C650.823 499.824 648.087 486 648.087 470.256C648.087 454.992 650.823 441.36 656.295 429.36C661.863 417.36 669.687 407.904 679.767 400.992C689.847 394.08 701.847 390.624 715.767 390.624C735.351 390.624 750.759 397.344 761.991 410.784C773.319 424.128 778.983 442.416 778.983 465.648C778.983 468.24 778.935 470.736 778.839 473.136C778.743 475.536 778.599 477.648 778.406 479.472H676.887ZM716.055 412.224C705.207 412.224 696.231 416.064 689.127 423.744C682.023 431.424 677.943 443.28 676.887 459.312H752.343C752.055 443.952 748.695 432.288 742.263 424.32C735.927 416.256 727.191 412.224 716.055 412.224Z" fill="#98C379"/>
<path d="M854.902 413.232C860.278 406.128 866.566 400.608 873.766 396.672C881.062 392.64 888.982 390.624 897.526 390.624C910.966 390.624 921.862 393.936 930.214 400.56C938.566 407.088 944.662 416.304 948.502 428.208C952.342 440.016 954.262 453.936 954.262 469.968C954.262 485.328 951.958 499.008 947.35 511.008C942.742 523.008 935.974 532.464 927.046 539.376C918.118 546.192 907.126 549.6 894.07 549.6C876.694 549.6 863.11 543.264 853.318 530.592L851.59 546H827.254V333.168L854.902 329.856V413.232ZM887.302 527.856C899.206 527.856 908.374 523.152 914.806 513.744C921.334 504.24 924.598 489.648 924.598 469.968C924.598 450.288 921.67 435.792 915.814 426.48C910.054 417.072 901.702 412.368 890.758 412.368C882.886 412.368 875.926 414.768 869.878 419.568C863.83 424.272 858.838 429.648 854.902 435.696V509.136C858.742 514.896 863.446 519.456 869.014 522.816C874.582 526.176 880.678 527.856 887.302 527.856Z" fill="#A5CEFF"/>
<path d="M1111.83 511.152C1111.83 517.2 1112.79 521.616 1114.71 524.4C1116.63 527.088 1119.65 529.104 1123.78 530.448L1117.3 549.456C1110.39 548.592 1104.34 546.528 1099.16 543.264C1094.07 540 1090.33 535.008 1087.93 528.288C1082.45 535.392 1075.54 540.72 1067.19 544.272C1058.84 547.824 1049.77 549.6 1039.97 549.6C1024.71 549.6 1012.66 545.28 1003.83 536.64C994.998 528 990.582 516.624 990.582 502.512C990.582 486.768 996.726 474.672 1009.01 466.224C1021.4 457.68 1039.16 453.408 1062.29 453.408H1084.33V441.888C1084.33 431.424 1081.21 423.984 1074.97 419.568C1068.82 415.152 1060.23 412.944 1049.19 412.944C1044.1 412.944 1038.1 413.568 1031.19 414.816C1024.37 416.064 1017.08 418.032 1009.3 420.72L1002.25 400.56C1011.56 397.008 1020.53 394.464 1029.17 392.928C1037.81 391.392 1045.88 390.624 1053.37 390.624C1072.85 390.624 1087.45 395.088 1097.14 404.016C1106.93 412.944 1111.83 425.088 1111.83 440.448V511.152ZM1047.75 528.864C1054.76 528.864 1061.53 527.04 1068.05 523.392C1074.68 519.744 1080.1 514.656 1084.33 508.128V471.408H1064.17C1048.13 471.408 1036.76 474.144 1030.04 479.616C1023.32 484.992 1019.96 492.384 1019.96 501.792C1019.96 519.84 1029.22 528.864 1047.75 528.864Z" fill="#E06375"/>
<path d="M1243.19 526.272C1250.58 526.272 1257.45 525.072 1263.78 522.672C1270.21 520.176 1276.21 516.96 1281.78 513.024L1295.03 531.024C1288.31 536.592 1280.25 541.104 1270.84 544.56C1261.53 547.92 1252.17 549.6 1242.76 549.6C1227.49 549.6 1214.44 546.336 1203.59 539.808C1192.84 533.28 1184.63 524.112 1178.97 512.304C1173.3 500.496 1170.47 486.672 1170.47 470.832C1170.47 455.472 1173.3 441.792 1178.97 429.792C1184.73 417.696 1193.03 408.144 1203.88 401.136C1214.73 394.128 1227.83 390.624 1243.19 390.624C1262.97 390.624 1280.15 396.576 1294.74 408.48L1281.64 426.48C1268.87 417.648 1256.1 413.232 1243.33 413.232C1230.66 413.232 1220.29 417.936 1212.23 427.344C1204.17 436.752 1200.13 451.248 1200.13 470.832C1200.13 490.512 1204.17 504.672 1212.23 513.312C1220.39 521.952 1230.71 526.272 1243.19 526.272ZM1374.26 329.856V546H1346.61V333.168L1374.26 329.856ZM1475.35 394.224L1409.97 462.336L1482.55 546H1447.56L1376.85 463.056L1441.22 394.224H1475.35Z" fill="#ABB2BF"/>
</svg>
